<svg xmlns="http://www.w3.org/2000/svg" version="1.1" xmlns:xlink="http://www.w3.org/1999/xlink" xmlns:svgjs="http://svgjs.dev/svgjs" viewBox="0 0 800 800"><defs><linearGradient x1="50%" y1="0%" x2="50%" y2="100%" id="ffflurry-grad" gradientTransform="rotate(270)"><stop stop-color="hsl(0, 0%, 0%)" stop-opacity="1" offset="0%"></stop><stop stop-color="hsl(230, 55%, 50%)" stop-opacity="1" offset="45%"></stop><stop stop-color="hsl(230, 55%, 70%)" stop-opacity="1" offset="100%"></stop></linearGradient></defs><rect width="100%" height="100%" fill="hsl(0, 0%, 0%)"></rect><g fill="url(#ffflurry-grad)"><rect width="64" height="2" x="261" y="764" rx="1" transform="rotate(45, 293, 765)"></rect><rect width="34" height="2" x="294" y="441" rx="1" transform="rotate(45, 311, 442)"></rect><rect width="61" height="2" x="239.5" y="513" rx="1" transform="rotate(45, 270, 514)"></rect><rect width="160" height="2" x="286" y="145" rx="1" transform="rotate(45, 366, 146)"></rect><rect width="156" height="2" x="611" y="517" rx="1" transform="rotate(45, 689, 518)"></rect><rect width="145" height="2" x="-27.5" y="70" rx="1" transform="rotate(45, 45, 71)"></rect><rect width="145" height="2" x="85.5" y="167" rx="1" transform="rotate(45, 158, 168)"></rect><rect width="123" height="2" x="298.5" y="587" rx="1" transform="rotate(45, 360, 588)"></rect><rect width="197" height="2" x="107.5" y="45" rx="1" transform="rotate(45, 206, 46)"></rect><rect width="201" height="2" x="376.5" y="648" rx="1" transform="rotate(45, 477, 649)"></rect><rect width="238" height="2" x="261" y="657" rx="1" transform="rotate(45, 380, 658)"></rect><rect width="142" height="2" x="228" y="51" rx="1" transform="rotate(45, 299, 52)"></rect><rect width="95" height="2" x="709.5" y="673" rx="1" transform="rotate(45, 757, 674)"></rect><rect width="310" height="2" x="-96" y="212" rx="1" transform="rotate(45, 59, 213)"></rect><rect width="64" height="2" x="87" y="345" rx="1" transform="rotate(45, 119, 346)"></rect><rect width="81" height="2" x="559.5" y="723" rx="1" transform="rotate(45, 600, 724)"></rect><rect width="205" height="2" x="24.5" y="610" rx="1" transform="rotate(45, 127, 611)"></rect><rect width="69" height="2" x="536.5" y="269" rx="1" transform="rotate(45, 571, 270)"></rect><rect width="269" height="2" x="612.5" y="347" rx="1" transform="rotate(45, 747, 348)"></rect><rect width="195" height="2" x="-17.5" y="736" rx="1" transform="rotate(45, 80, 737)"></rect><rect width="90" height="2" x="482" y="35" rx="1" transform="rotate(45, 527, 36)"></rect><rect width="166" height="2" x="308" y="454" rx="1" transform="rotate(45, 391, 455)"></rect><rect width="130" height="2" x="-17" y="559" rx="1" transform="rotate(45, 48, 560)"></rect><rect width="129" height="2" x="217.5" y="318" rx="1" transform="rotate(45, 282, 319)"></rect><rect width="263" height="2" x="267.5" y="45" rx="1" transform="rotate(45, 399, 46)"></rect><rect width="74" height="2" x="635" y="783" rx="1" transform="rotate(45, 672, 784)"></rect><rect width="51" height="2" x="586.5" y="37" rx="1" transform="rotate(45, 612, 38)"></rect><rect width="167" height="2" x="578.5" y="307" rx="1" transform="rotate(45, 662, 308)"></rect><rect width="65" height="2" x="566.5" y="777" rx="1" transform="rotate(45, 599, 778)"></rect><rect width="114" height="2" x="493" y="420" rx="1" transform="rotate(45, 550, 421)"></rect><rect width="249" height="2" x="94.5" y="448" rx="1" transform="rotate(45, 219, 449)"></rect><rect width="168" height="2" x="455" y="707" rx="1" transform="rotate(45, 539, 708)"></rect><rect width="100" height="2" x="536" y="631" rx="1" transform="rotate(45, 586, 632)"></rect><rect width="65" height="2" x="483.5" y="201" rx="1" transform="rotate(45, 516, 202)"></rect><rect width="127" height="2" x="705.5" y="458" rx="1" transform="rotate(45, 769, 459)"></rect><rect width="98" height="2" x="277" y="371" rx="1" transform="rotate(45, 326, 372)"></rect><rect width="303" height="2" x="418.5" y="125" rx="1" transform="rotate(45, 570, 126)"></rect><rect width="290" height="2" x="74" y="736" rx="1" transform="rotate(45, 219, 737)"></rect><rect width="108" height="2" x="131" y="646" rx="1" transform="rotate(45, 185, 647)"></rect><rect width="92" height="2" x="449" y="430" rx="1" transform="rotate(45, 495, 431)"></rect><rect width="75" height="2" x="297.5" y="260" rx="1" transform="rotate(45, 335, 261)"></rect><rect width="192" height="2" x="332" y="199" rx="1" transform="rotate(45, 428, 200)"></rect><rect width="65" height="2" x="319.5" y="740" rx="1" transform="rotate(45, 352, 741)"></rect><rect width="246" height="2" x="106" y="371" rx="1" transform="rotate(45, 229, 372)"></rect><rect width="74" height="2" x="725" y="76" rx="1" transform="rotate(45, 762, 77)"></rect><rect width="113" height="2" x="-14.5" y="328" rx="1" transform="rotate(45, 42, 329)"></rect><rect width="90" height="2" x="614" y="96" rx="1" transform="rotate(45, 659, 97)"></rect><rect width="149" height="2" x="598.5" y="151" rx="1" transform="rotate(45, 673, 152)"></rect><rect width="87" height="2" x="616.5" y="669" rx="1" transform="rotate(45, 660, 670)"></rect><rect width="201" height="2" x="289.5" y="373" rx="1" transform="rotate(45, 390, 374)"></rect><rect width="126" height="2" x="355" y="289" rx="1" transform="rotate(45, 418, 290)"></rect><rect width="167" height="2" x="207.5" y="664" rx="1" transform="rotate(45, 291, 665)"></rect><rect width="186" height="2" x="390" y="491" rx="1" transform="rotate(45, 483, 492)"></rect><rect width="239" height="2" x="368.5" y="302" rx="1" transform="rotate(45, 488, 303)"></rect><rect width="42" height="2" x="396" y="742" rx="1" transform="rotate(45, 417, 743)"></rect><rect width="100" height="2" x="423" y="97" rx="1" transform="rotate(45, 473, 98)"></rect><rect width="224" height="2" x="582" y="429" rx="1" transform="rotate(45, 694, 430)"></rect><rect width="180" height="2" x="179" y="161" rx="1" transform="rotate(45, 269, 162)"></rect><rect width="149" height="2" x="177.5" y="598" rx="1" transform="rotate(45, 252, 599)"></rect><rect width="125" height="2" x="384.5" y="394" rx="1" transform="rotate(45, 447, 395)"></rect><rect width="86" height="2" x="558" y="406" rx="1" transform="rotate(45, 601, 407)"></rect><rect width="47" height="2" x="539.5" y="560" rx="1" transform="rotate(45, 563, 561)"></rect><rect width="186" height="2" x="562" y="383" rx="1" transform="rotate(45, 655, 384)"></rect><rect width="185" height="2" x="428.5" y="359" rx="1" transform="rotate(45, 521, 360)"></rect><rect width="181" height="2" x="111.5" y="266" rx="1" transform="rotate(45, 202, 267)"></rect><rect width="80" height="2" x="636" y="740" rx="1" transform="rotate(45, 676, 741)"></rect><rect width="55" height="2" x="722.5" y="186" rx="1" transform="rotate(45, 750, 187)"></rect><rect width="51" height="2" x="674.5" y="32" rx="1" transform="rotate(45, 700, 33)"></rect><rect width="148" height="2" x="600" y="244" rx="1" transform="rotate(45, 674, 245)"></rect><rect width="100" height="2" x="115" y="526" rx="1" transform="rotate(45, 165, 527)"></rect><rect width="216" height="2" x="251" y="517" rx="1" transform="rotate(45, 359, 518)"></rect><rect width="174" height="2" x="505" y="337" rx="1" transform="rotate(45, 592, 338)"></rect><rect width="171" height="2" x="-16.5" y="643" rx="1" transform="rotate(45, 69, 644)"></rect><rect width="193" height="2" x="665.5" y="269" rx="1" transform="rotate(45, 762, 270)"></rect><rect width="65" height="2" x="442.5" y="755" rx="1" transform="rotate(45, 475, 756)"></rect><rect width="98" height="2" x="82" y="67" rx="1" transform="rotate(45, 131, 68)"></rect><rect width="45" height="2" x="125.5" y="420" rx="1" transform="rotate(45, 148, 421)"></rect><rect width="196" height="2" x="-45" y="457" rx="1" transform="rotate(45, 53, 458)"></rect><rect width="202" height="2" x="489" y="484" rx="1" transform="rotate(45, 590, 485)"></rect><rect width="40" height="2" x="737" y="758" rx="1" transform="rotate(45, 757, 759)"></rect><rect width="124" height="2" x="384" y="554" rx="1" transform="rotate(45, 446, 555)"></rect><rect width="196" height="2" x="41" y="763" rx="1" transform="rotate(45, 139, 764)"></rect><rect width="71" height="2" x="-12.5" y="707" rx="1" transform="rotate(45, 23, 708)"></rect><rect width="133" height="2" x="553.5" y="198" rx="1" transform="rotate(45, 620, 199)"></rect><rect width="108" height="2" x="480" y="773" rx="1" transform="rotate(45, 534, 774)"></rect><rect width="87" height="2" x="686.5" y="589" rx="1" transform="rotate(45, 730, 590)"></rect></g></svg>